G04 ===== Begin FILE IDENTIFICATION =====*
G04 File Format:  Gerber RS274X*
G04 ===== End FILE IDENTIFICATION =====*
%FSLAX24Y24*%
%MOIN*%
%SFA1.0000B1.0000*%
%OFA0.0B0.0*%
%ADD14R,0.007874X0.015748*%
%ADD15C,0.007874*%
%ADD16R,0.265890X0.082306*%
%ADD17R,0.101362X0.082306*%
%ADD18R,0.082283X0.157480*%
%ADD19R,0.082306X0.355760*%
%ADD20R,0.306689X0.214543*%
%ADD21R,0.155884X0.082306*%
%ADD22R,0.019685X0.082283*%
%ADD23R,0.189024X0.082306*%
%ADD24R,0.082306X0.236222*%
%ADD25R,0.007874X0.317674*%
%ADD26R,0.082283X0.203449*%
%ADD27R,0.164567X0.019685*%
%ADD28R,0.171827X0.082306*%
%ADD29R,0.082306X0.328515*%
%ADD30R,0.082306X0.314587*%
%ADD31R,0.116494X0.082306*%
%ADD32R,0.082306X0.166572*%
%ADD33R,0.082283X0.229895*%
%ADD34R,1.006996X0.082306*%
%ADD35R,0.082306X0.369572*%
%ADD36R,0.198931X0.082306*%
%ADD37R,0.031366X0.323436*%
%ADD38R,0.275591X0.082283*%
%ADD39R,0.067871X0.277783*%
%ADD40R,0.192483X0.012815*%
%ADD41R,0.309886X0.012815*%
%ADD42R,0.180867X0.012815*%
%ADD43R,0.138074X0.228245*%
%ADD44R,0.060074X0.083933*%
%ADD45R,0.157480X0.017690*%
%ADD46R,0.392595X0.028715*%
%ADD47R,0.224410X0.104005*%
%ADD48R,0.019689X0.226121*%
%ADD49R,0.320485X0.082283*%
%ADD50R,0.235426X0.010326*%
%ADD51R,0.165179X0.010326*%
%ADD52R,0.252864X0.010326*%
%ADD53R,0.389617X0.082283*%
%ADD54R,0.393700X0.098424*%
%ADD55R,0.228916X0.082283*%
%ADD56R,0.369287X0.056524*%
%ADD57R,0.007883X0.029191*%
%LNcond*%
%IPPOS*%
%LPD*%
G75*
D14*
X24224Y4484D03*
D15*
X24185D03*
D16*
X22855D03*
D17*
X20625D03*
G36*
G01X19295Y4896D02*
G01X20119D01*
G01Y4073D01*
G01X19296D01*
G01Y4484D01*
G01X19295D01*
G01Y4896D01*
G37*
D18*
X19707Y3285D03*
D19*
X6075Y11186D03*
D20*
X19707Y1425D03*
D14*
X1387Y8996D03*
D15*
X1427D03*
D21*
X2206D03*
D22*
X3084D03*
D23*
X4718D03*
D22*
X3675D03*
G36*
G01X6486Y9407D02*
G01X5663D01*
G01Y8584D01*
G01X6486D01*
G01Y9407D01*
G37*
D24*
X6075Y7403D03*
D25*
Y1812D03*
D26*
Y4418D03*
D14*
X-25804Y6303D03*
D15*
X-25765D03*
D27*
X6075Y5533D03*
D14*
X13Y6522D03*
D15*
X-27D03*
D27*
X6075Y6124D03*
D28*
X-886Y6522D03*
D22*
X-1843D03*
D29*
X19707Y6538D03*
D22*
X-2434Y6522D03*
D30*
X-4109Y8507D03*
D31*
X-3115Y6522D03*
G36*
G01X-4520Y6934D02*
G01X-3697D01*
G01Y6111D01*
G01X-4520D01*
G01Y6934D01*
G37*
D32*
X-4109Y5278D03*
D27*
Y4347D03*
Y3756D03*
D33*
Y2508D03*
D22*
X-15596Y6303D03*
D34*
X-20730D03*
D22*
X-15006D03*
D35*
X-12506Y8562D03*
D36*
X-13913Y6303D03*
G36*
G01X-12095Y6714D02*
G01X-12918D01*
G01Y5891D01*
G01X-12095D01*
G01Y6303D01*
G01Y6714D01*
G37*
D18*
X-12506Y5104D03*
D37*
Y2699D03*
D38*
X-22933Y150D03*
D39*
X-21216D03*
D40*
X-19914D03*
D41*
X-17402D03*
Y-59D03*
D42*
X-14948D03*
D43*
X-13354D03*
G36*
G01X-12350Y-479D02*
G01Y1082D01*
G01X-12663D01*
G01Y-1200D01*
G01X-12506D01*
G01Y-479D01*
G01X-12350D01*
G37*
D44*
X-12049Y-59D03*
D45*
X-10961D03*
D46*
X-4109Y1215D03*
D47*
X-7194Y-59D03*
G36*
G01X-2146Y-1190D02*
G01Y1072D01*
G01X-6072D01*
G01Y-579D01*
G01X-4109D01*
G01Y-1190D01*
G01X-2146D01*
G37*
D48*
X-2047Y-59D03*
D49*
X29378Y124D03*
D50*
X26598D03*
D51*
X24595D03*
Y-59D03*
D52*
X22505D03*
G36*
G01X21240Y-111D02*
G01Y352D01*
G01X18174D01*
G01Y-470D01*
G01X19707D01*
G01Y-111D01*
G01X21240D01*
G37*
D53*
X16225Y-59D03*
D54*
X12309D03*
D55*
X9196D03*
G36*
G01X-1949Y689D02*
G01X2165D01*
G01Y610D01*
G01X-1850D01*
G01Y374D01*
G01X2165D01*
G01Y295D01*
G01X-1850D01*
G01Y59D01*
G01X2165D01*
G01Y-20D01*
G01X-1850D01*
G01Y-256D01*
G01X2165D01*
G01Y-335D01*
G01X-1850D01*
G01Y-571D01*
G01X2165D01*
G01Y-650D01*
G01X-1850D01*
G01Y-807D01*
G01X-1949D01*
G01Y689D01*
G37*
G36*
G01X2343Y-807D02*
G01X-1772D01*
G01Y-728D01*
G01X2244D01*
G01Y-492D01*
G01X-1772D01*
G01Y-413D01*
G01X2244D01*
G01Y-177D01*
G01X-1772D01*
G01Y-98D01*
G01X2244D01*
G01Y138D01*
G01X-1772D01*
G01Y217D01*
G01X2244D01*
G01Y453D01*
G01X-1772D01*
G01Y531D01*
G01X2244D01*
G01Y689D01*
G01X2343D01*
G01Y-807D01*
G37*
D56*
X4189Y-59D03*
G36*
G01X6114Y-205D02*
G01Y224D01*
G01X6035D01*
G01Y-342D01*
G01X6075D01*
G01Y-205D01*
G01X6114D01*
G37*
D57*
X6154Y-59D03*
M02*

