;           Gerber:: Drill Report             
;           =====================             
;    Unit                   : metric
;    Format                 : 3.6, Leading Zeros Suppressed
;    Co-ordinate data Mode  : Absolute Data mode
;+----------------------------------------+
;|  D R I L L   T O O L S   T A B L E     |
;+----------------------------------------+
;|    Drill    |    Tool    |    Drill    |
;|    Tool     |    Size    |    Count    |
;+----------------------------------------+
;|          T01|    0.200000|            4|
;|          T02|    0.400000|           32|
;+----------------------------------------+

M48

METRIC,LZ,000.000000
T01C0.200000
T02C0.400000
%
M71
G90
T01
X06142925Y01138967
X00362392Y02284967
X-065442104Y016009275
X-000067409Y01656663
T02
X-024532024Y00339005
X-022432024Y-00201995
X-024532024
Y00179005
X-022432024
X-023482024Y00339005
X-022432024Y00259005
X-023482024Y-00361995
X-022432024Y00339005
Y-00361995
X-024532024
X-023482024Y00259005
X-024532024
Y-00281995
X-022432024
X-023482024
X0170401Y00339005
X0191401Y-00201995
X0170401
Y00179005
X0191401
X0180901Y00339005
X0191401Y00259005
X0180901Y-00361995
X0191401Y00339005
Y-00361995
X0170401
X0180901Y00259005
X0170401
Y-00281995
X0191401
X0180901

M30
