M48
; DRILL file {KiCad 8.0.3} date 2025-01-07T15:38:10+0100
; FORMAT={-:-/ absolute / inch / decimal}
; #@! TF.CreationDate,2025-01-07T15:38:10+01:00
; #@! TF.GenerationSoftware,Kicad,Pcbnew,8.0.3
; #@! TF.FileFunction,Plated,1,2,PTH
FMAT,2
INCH
; #@! TA.AperFunction,Plated,PTH,ViaDrill
T1C0.0079
; #@! TA.AperFunction,Plated,PTH,ViaDrill
T2C0.0157
%
G90
G05
T1
X-2.5765Y0.6303
X-0.0027Y0.6522
X0.1427Y0.8996
X2.4185Y0.4484
T2
X-0.9658Y0.1335
X-0.9658Y0.102
X-0.9658Y0.0705
X-0.9658Y-0.0795
X-0.9658Y-0.111
X-0.9658Y-0.1425
X-0.9245Y0.1335
X-0.9245Y0.102
X-0.9245Y-0.111
X-0.9245Y-0.1425
X-0.8832Y0.1335
X-0.8832Y0.102
X-0.8832Y0.0705
X-0.8832Y-0.0795
X-0.8832Y-0.111
X-0.8832Y-0.1425
X0.6709Y0.1335
X0.6709Y0.102
X0.6709Y0.0705
X0.6709Y-0.0795
X0.6709Y-0.111
X0.6709Y-0.1425
X0.7122Y0.1335
X0.7122Y0.102
X0.7122Y-0.111
X0.7122Y-0.1425
X0.7535Y0.1335
X0.7535Y0.102
X0.7535Y0.0705
X0.7535Y-0.0795
X0.7535Y-0.111
X0.7535Y-0.1425
M30
